<?xml version="1.0" encoding="UTF-8"?>
<svg xmlns="http://www.w3.org/2000/svg" xmlns:xlink="http://www.w3.org/1999/xlink" width="px" height="px" viewBox="0 0 244 45" version="1.1">
<g id="surface1">
<path style=" stroke:none;fill-rule:nonzero;fill:rgb(0%,0%,0%);fill-opacity:1;" d="M 67.148438 26.425781 C 66.960938 25.933594 66.867188 25.25 66.867188 24.378906 C 66.867188 23.507812 67.164062 20.921875 67.757812 16.625 C 68.355469 12.339844 68.652344 8.894531 68.652344 6.296875 C 68.652344 5.6875 68.609375 4.851562 68.519531 3.789062 C 70.0625 3.878906 71.027344 4.242188 71.417969 4.878906 C 71.621094 5.257812 71.753906 5.613281 71.8125 5.949219 C 71.867188 6.28125 71.898438 6.8125 71.898438 7.539062 C 71.898438 8.25 71.570312 10.957031 70.917969 15.664062 C 70.25 20.371094 69.910156 23.726562 69.894531 25.730469 C 69.996094 25.699219 70.175781 25.6875 70.4375 25.6875 C 74.839844 25.6875 78.113281 25.382812 80.265625 24.769531 C 80.117188 25.949219 79.71875 26.863281 79.066406 27.515625 C 78.398438 28.171875 77.570312 28.496094 76.582031 28.496094 C 76.292969 28.496094 75.414062 28.429688 73.945312 28.300781 C 72.464844 28.171875 71.035156 28.105469 69.652344 28.105469 C 68.273438 28.105469 66.886719 28.234375 65.492188 28.496094 C 65.769531 27.597656 66.320312 26.90625 67.148438 26.425781 Z M 87.214844 16.316406 C 86.632812 17.335938 86.183594 18.378906 85.863281 19.457031 C 85.542969 20.515625 85.382812 21.539062 85.382812 22.527344 C 85.382812 23.5 85.601562 24.328125 86.039062 25.011719 C 86.472656 25.695312 87.097656 26.035156 87.910156 26.035156 C 89.058594 26.035156 90.125 25.410156 91.113281 24.160156 C 92.117188 22.898438 92.886719 21.378906 93.421875 19.609375 C 93.960938 17.820312 94.230469 16.171875 94.230469 14.664062 C 94.230469 13.152344 94.171875 11.910156 94.054688 10.9375 C 94.535156 10.894531 94.839844 10.871094 94.96875 10.871094 C 96.699219 10.871094 97.5625 11.757812 97.5625 13.53125 C 97.5625 13.90625 97.316406 15.476562 96.820312 18.234375 C 96.34375 20.996094 96.101562 23.203125 96.101562 24.859375 C 96.101562 26.515625 96.414062 27.980469 97.039062 29.257812 C 95.761719 28.996094 94.832031 28.429688 94.25 27.558594 C 93.671875 26.703125 93.378906 25.460938 93.378906 23.835938 C 93.378906 23.542969 93.421875 22.992188 93.511719 22.179688 C 92.957031 24.109375 91.992188 25.664062 90.613281 26.839844 C 89.21875 28.03125 87.859375 28.628906 86.539062 28.628906 C 85.203125 28.628906 84.128906 28.117188 83.3125 27.101562 C 82.5 26.101562 82.09375 24.714844 82.09375 22.941406 C 82.09375 21.15625 82.429688 19.410156 83.097656 17.710938 C 83.75 16.011719 84.746094 14.546875 86.082031 13.3125 C 87.402344 12.0625 88.890625 11.4375 90.546875 11.4375 C 91.257812 11.4375 92.042969 11.582031 92.898438 11.875 C 91.695312 12.179688 90.589844 12.738281 89.589844 13.550781 C 88.601562 14.363281 87.808594 15.285156 87.214844 16.316406 Z M 117.910156 7.058594 L 117.933594 7.429688 C 117.933594 8.199219 117.640625 10.726562 117.0625 15.011719 C 116.480469 19.28125 116.191406 22.855469 116.191406 25.730469 C 116.191406 27.007812 116.253906 28.003906 116.386719 28.714844 C 115.890625 28.757812 115.625 28.78125 115.578125 28.78125 C 114.664062 28.78125 113.980469 28.570312 113.53125 28.148438 C 113.097656 27.726562 112.878906 27.042969 112.878906 26.101562 C 112.878906 25.15625 113.21875 22.265625 113.902344 17.429688 C 114.570312 12.605469 114.90625 9.164062 114.90625 7.101562 C 114.90625 5.039062 114.765625 3.6875 114.492188 3.050781 C 115.144531 3.136719 115.746094 3.390625 116.300781 3.8125 C 116.867188 4.21875 117.285156 4.769531 117.5625 5.46875 C 119.117188 4.640625 120.84375 4.226562 122.746094 4.226562 C 124.636719 4.226562 126.125 4.808594 127.214844 5.96875 C 128.304688 7.144531 128.847656 8.582031 128.847656 10.285156 C 128.847656 12.460938 128.054688 14.421875 126.472656 16.164062 C 124.890625 17.894531 122.753906 18.757812 120.066406 18.757812 C 119.457031 18.757812 118.898438 18.722656 118.390625 18.648438 L 118.304688 17.667969 C 119.667969 17.667969 120.859375 17.464844 121.875 17.058594 C 122.894531 16.652344 123.664062 16.113281 124.1875 15.445312 C 125.21875 14.140625 125.734375 12.613281 125.734375 10.871094 C 125.734375 9.609375 125.332031 8.554688 124.535156 7.710938 C 123.734375 6.871094 122.574219 6.449219 121.046875 6.449219 C 120.132812 6.449219 119.085938 6.652344 117.910156 7.058594 Z M 135.601562 16.316406 C 135.007812 17.335938 134.546875 18.378906 134.230469 19.457031 C 133.925781 20.515625 133.773438 21.539062 133.773438 22.527344 C 133.773438 23.5 133.988281 24.328125 134.425781 25.011719 C 134.859375 25.695312 135.484375 26.035156 136.300781 26.035156 C 137.433594 26.035156 138.5 25.410156 139.5 24.160156 C 140.488281 22.898438 141.25 21.378906 141.789062 19.609375 C 142.339844 17.820312 142.617188 16.171875 142.617188 14.664062 C 142.617188 13.152344 142.550781 11.910156 142.421875 10.9375 C 142.914062 10.894531 143.21875 10.871094 143.335938 10.871094 C 145.0625 10.871094 145.929688 11.757812 145.929688 13.53125 C 145.929688 13.90625 145.6875 15.476562 145.210938 18.234375 C 144.714844 20.996094 144.46875 23.203125 144.46875 24.859375 C 144.46875 26.515625 144.78125 27.980469 145.40625 29.257812 C 144.128906 28.996094 143.199219 28.429688 142.617188 27.558594 C 142.035156 26.703125 141.746094 25.460938 141.746094 23.835938 C 141.746094 23.542969 141.789062 22.992188 141.875 22.179688 C 141.324219 24.109375 140.359375 25.664062 138.980469 26.839844 C 137.597656 28.03125 136.242188 28.628906 134.90625 28.628906 C 133.566406 28.628906 132.492188 28.117188 131.679688 27.101562 C 130.867188 26.101562 130.460938 24.714844 130.460938 22.941406 C 130.460938 21.15625 130.792969 19.410156 131.460938 17.710938 C 132.117188 16.011719 133.109375 14.546875 134.445312 13.3125 C 135.785156 12.0625 137.273438 11.4375 138.914062 11.4375 C 139.625 11.4375 140.410156 11.582031 141.265625 11.875 C 140.0625 12.179688 138.964844 12.738281 137.976562 13.550781 C 136.972656 14.363281 136.183594 15.285156 135.601562 16.316406 Z M 164.773438 14.988281 C 164.773438 15.917969 164.578125 17.566406 164.1875 19.933594 C 163.792969 22.300781 163.597656 24.03125 163.597656 25.121094 C 163.597656 26.195312 163.726562 26.972656 163.988281 27.449219 C 164.25 27.929688 164.703125 28.335938 165.339844 28.671875 C 165.0625 28.699219 164.6875 28.714844 164.207031 28.714844 C 162.828125 28.714844 161.847656 28.453125 161.265625 27.929688 C 160.683594 27.40625 160.394531 26.476562 160.394531 25.140625 C 160.394531 24.386719 160.597656 22.867188 161.003906 20.589844 C 161.410156 18.292969 161.613281 16.609375 161.613281 15.535156 C 161.613281 14.199219 161.207031 13.53125 160.394531 13.53125 C 159.085938 13.53125 157.738281 14.675781 156.34375 16.972656 C 154.949219 19.265625 154.25 22.035156 154.25 25.273438 C 154.25 26.550781 154.316406 27.546875 154.445312 28.257812 C 153.910156 28.300781 153.589844 28.324219 153.488281 28.324219 C 151.703125 28.324219 150.808594 27.445312 150.808594 25.6875 C 150.808594 25.28125 151.027344 23.71875 151.460938 21.003906 C 151.882812 18.273438 152.09375 16.101562 152.09375 14.488281 C 152.09375 12.859375 151.917969 11.371094 151.570312 10.023438 C 152.777344 10.488281 153.621094 11.148438 154.097656 12.003906 C 154.578125 12.875 154.816406 13.863281 154.816406 14.96875 C 154.816406 16.070312 154.695312 17.355469 154.445312 18.824219 C 155.113281 16.527344 156.167969 14.597656 157.605469 13.027344 C 159.03125 11.445312 160.367188 10.652344 161.613281 10.652344 C 163.722656 10.652344 164.773438 12.097656 164.773438 14.988281 Z M 179.394531 11.546875 C 179.394531 12.390625 179.234375 12.976562 178.914062 13.3125 C 178.578125 13.632812 178.101562 13.789062 177.476562 13.789062 L 175.273438 13.789062 C 175.1875 14.328125 174.976562 15.59375 174.644531 17.582031 C 173.945312 21.359375 173.597656 24.210938 173.597656 26.144531 C 173.597656 28.074219 173.742188 29.359375 174.03125 30 C 172.871094 29.5625 172.042969 28.917969 171.550781 28.0625 C 171.070312 27.191406 170.832031 26.136719 170.832031 24.902344 C 170.832031 23.652344 170.902344 22.476562 171.046875 21.371094 C 171.207031 20.269531 171.425781 18.976562 171.703125 17.496094 C 171.992188 16 172.195312 14.808594 172.3125 13.921875 C 171.148438 14.082031 170.011719 14.40625 168.890625 14.902344 C 168.863281 14.566406 168.847656 14.269531 168.847656 14.007812 C 168.847656 13.035156 169.167969 12.382812 169.804688 12.046875 C 170.460938 11.714844 171.398438 11.546875 172.617188 11.546875 C 172.761719 10.035156 172.835938 8.910156 172.835938 8.171875 C 172.835938 7.429688 172.828125 6.832031 172.8125 6.382812 C 172.8125 5.933594 172.8125 5.597656 172.8125 5.382812 C 173.742188 5.527344 174.460938 5.941406 174.96875 6.625 C 175.476562 7.292969 175.734375 8.222656 175.734375 9.410156 C 175.734375 10.023438 175.683594 10.761719 175.578125 11.632812 C 177.351562 11.632812 178.601562 11.335938 179.328125 10.742188 C 179.371094 11.03125 179.394531 11.300781 179.394531 11.546875 Z M 185.121094 18.824219 C 185.789062 16.527344 186.820312 14.597656 188.214844 13.027344 C 189.609375 11.445312 190.917969 10.652344 192.136719 10.652344 C 193.359375 10.652344 194.222656 11.023438 194.730469 11.765625 C 195.238281 12.503906 195.492188 13.515625 195.492188 14.792969 C 195.492188 16.058594 195.296875 17.835938 194.90625 20.128906 C 194.511719 22.441406 194.316406 24.117188 194.316406 25.164062 C 194.316406 26.210938 194.445312 26.972656 194.707031 27.449219 C 194.96875 27.929688 195.414062 28.335938 196.039062 28.671875 C 195.777344 28.699219 195.40625 28.714844 194.925781 28.714844 C 193.621094 28.714844 192.652344 28.445312 192.027344 27.910156 C 191.417969 27.371094 191.113281 26.449219 191.113281 25.140625 C 191.113281 24.386719 191.316406 22.867188 191.722656 20.589844 C 192.128906 18.292969 192.332031 16.609375 192.332031 15.535156 C 192.332031 14.199219 191.863281 13.53125 190.917969 13.53125 C 190.367188 13.53125 189.753906 13.820312 189.085938 14.402344 C 188.417969 14.96875 187.773438 15.746094 187.148438 16.730469 C 186.539062 17.71875 186.023438 18.976562 185.601562 20.5 C 185.179688 22.011719 184.96875 23.5 184.96875 24.96875 C 184.96875 26.449219 185.035156 27.546875 185.167969 28.257812 C 184.671875 28.300781 184.394531 28.324219 184.339844 28.324219 C 183.378906 28.324219 182.675781 28.117188 182.226562 27.710938 C 181.761719 27.304688 181.527344 26.667969 181.527344 25.796875 C 181.527344 24.9375 181.710938 23.273438 182.074219 20.804688 C 183.148438 13.238281 183.683594 7.496094 183.683594 3.574219 C 183.683594 1.800781 183.570312 0.609375 183.335938 0 C 184.511719 0.4375 185.339844 1.066406 185.820312 1.894531 C 186.300781 2.738281 186.539062 3.886719 186.539062 5.335938 C 186.539062 6.355469 186.335938 8.488281 185.929688 11.742188 C 185.535156 14.996094 185.269531 17.355469 185.121094 18.824219 Z M 208.195312 12.242188 C 206.972656 12.242188 205.941406 12.941406 205.101562 14.335938 C 204.242188 15.746094 203.675781 17.394531 203.402344 19.28125 L 204.25 19.28125 C 205.324219 19.28125 206.261719 19.128906 207.0625 18.824219 C 207.847656 18.519531 208.457031 18.125 208.890625 17.648438 C 209.703125 16.703125 210.113281 15.644531 210.113281 14.464844 C 210.113281 13.796875 209.953125 13.261719 209.632812 12.855469 C 209.3125 12.449219 208.832031 12.242188 208.195312 12.242188 Z M 212.484375 24.597656 C 211.558594 26.121094 210.53125 27.191406 209.414062 27.800781 C 208.296875 28.410156 206.996094 28.714844 205.515625 28.714844 C 204.046875 28.714844 202.761719 28.0625 201.660156 26.753906 C 200.554688 25.460938 200.003906 23.632812 200.003906 21.261719 C 200.003906 18.578125 200.730469 16.179688 202.179688 14.074219 C 202.894531 13.058594 203.824219 12.230469 204.96875 11.589844 C 206.117188 10.964844 207.382812 10.652344 208.761719 10.652344 C 211.8125 10.652344 213.335938 12.128906 213.335938 15.078125 C 213.335938 16.847656 212.652344 18.234375 211.289062 19.238281 C 209.910156 20.238281 208.316406 20.742188 206.515625 20.742188 C 205.3125 20.742188 204.230469 20.632812 203.269531 20.414062 C 203.257812 20.617188 203.25 20.929688 203.25 21.351562 C 203.25 24.953125 204.316406 26.753906 206.453125 26.753906 C 208.457031 26.753906 210.089844 25.757812 211.351562 23.769531 C 212.109375 23.871094 212.484375 24.148438 212.484375 24.597656 Z M 211.875 8.367188 C 211.863281 8.582031 211.753906 8.792969 211.550781 8.996094 C 211.359375 9.1875 211.144531 9.308594 210.894531 9.367188 C 210.167969 8.453125 209.234375 7.550781 208.085938 6.667969 C 206.9375 5.765625 205.769531 5.132812 204.578125 4.769531 C 204.621094 3.710938 205.113281 2.875 206.058594 2.265625 C 207.132812 2.6875 208.246094 3.53125 209.394531 4.792969 C 210.539062 6.042969 211.367188 7.234375 211.875 8.367188 Z M 220.875 18.34375 C 221.601562 15.699219 222.480469 13.753906 223.511719 12.503906 C 224.542969 11.257812 225.5 10.632812 226.386719 10.632812 C 227.273438 10.632812 227.933594 10.957031 228.367188 11.613281 C 228.820312 12.28125 229.042969 13.121094 229.042969 14.140625 C 229.042969 15.15625 228.78125 16.035156 228.257812 16.777344 C 227.722656 17.515625 226.945312 17.886719 225.929688 17.886719 C 225.609375 17.886719 225.355469 17.863281 225.167969 17.820312 C 225.863281 16.820312 226.210938 15.800781 226.210938 14.769531 C 226.210938 14.046875 225.914062 13.683594 225.320312 13.683594 C 224.855469 13.683594 224.359375 13.949219 223.835938 14.488281 C 223.300781 15.039062 222.792969 15.800781 222.3125 16.777344 C 221.816406 17.761719 221.410156 19.035156 221.09375 20.589844 C 220.757812 22.15625 220.589844 23.847656 220.589844 25.664062 C 220.589844 25.867188 220.640625 26.730469 220.742188 28.257812 C 220.21875 28.300781 219.914062 28.324219 219.828125 28.324219 C 218.042969 28.324219 217.148438 27.445312 217.148438 25.6875 C 217.148438 25.28125 217.367188 23.71875 217.800781 21.003906 C 218.222656 18.273438 218.433594 16.101562 218.433594 14.488281 C 218.433594 12.859375 218.257812 11.371094 217.910156 10.023438 C 219.117188 10.488281 219.960938 11.148438 220.4375 12.003906 C 220.917969 12.875 221.15625 13.886719 221.15625 15.03125 C 221.15625 16.179688 221.0625 17.285156 220.875 18.34375 Z M 238.847656 12.242188 C 237.628906 12.242188 236.589844 12.941406 235.734375 14.335938 C 234.890625 15.746094 234.332031 17.394531 234.054688 19.28125 L 234.90625 19.28125 C 235.980469 19.28125 236.917969 19.128906 237.714844 18.824219 C 238.5 18.519531 239.109375 18.125 239.546875 17.648438 C 240.359375 16.703125 240.765625 15.644531 240.765625 14.464844 C 240.765625 13.796875 240.605469 13.261719 240.285156 12.855469 C 239.964844 12.449219 239.488281 12.242188 238.847656 12.242188 Z M 243.140625 24.597656 C 242.210938 26.121094 241.1875 27.191406 240.066406 27.800781 C 238.949219 28.410156 237.648438 28.714844 236.167969 28.714844 C 234.703125 28.714844 233.414062 28.0625 232.3125 26.753906 C 231.207031 25.460938 230.65625 23.632812 230.65625 21.261719 C 230.65625 18.578125 231.382812 16.179688 232.835938 14.074219 C 233.546875 13.058594 234.476562 12.230469 235.625 11.589844 C 236.769531 10.964844 238.035156 10.652344 239.414062 10.652344 C 242.464844 10.652344 243.988281 12.128906 243.988281 15.078125 C 243.988281 16.847656 243.308594 18.234375 241.941406 19.238281 C 240.5625 20.238281 238.972656 20.742188 237.171875 20.742188 C 235.964844 20.742188 234.882812 20.632812 233.925781 20.414062 C 233.910156 20.617188 233.902344 20.929688 233.902344 21.351562 C 233.902344 24.953125 234.96875 26.753906 237.105469 26.753906 C 239.109375 26.753906 240.742188 25.757812 242.007812 23.769531 C 242.761719 23.871094 243.140625 24.148438 243.140625 24.597656 Z M 243.140625 24.597656 "/>
<path style=" stroke:none;fill-rule:nonzero;fill:rgb(11.372549%,11.372549%,10.588235%);fill-opacity:1;" d="M 24.4375 20.523438 L 24.4375 20.484375 C 23.980469 19.667969 23.210938 19.078125 22.308594 18.835938 L 22.222656 18.835938 C 21.730469 18.6875 21.226562 18.589844 20.710938 18.550781 C 19.324219 18.367188 17.996094 17.875 16.820312 17.113281 C 16.613281 16.988281 16.347656 17.046875 16.210938 17.246094 C 16.078125 17.445312 16.121094 17.714844 16.3125 17.863281 C 16.699219 18.113281 17.105469 18.335938 17.523438 18.535156 C 17.523438 18.59375 17.46875 18.65625 17.449219 18.722656 C 16.898438 20.667969 18.019531 22.699219 19.960938 23.265625 C 20.3125 23.367188 20.675781 23.417969 21.039062 23.417969 C 22.148438 23.421875 23.195312 22.914062 23.875 22.039062 C 23.929688 22.644531 23.890625 23.257812 23.765625 23.851562 C 23.71875 23.96875 23.722656 24.101562 23.777344 24.21875 C 23.832031 24.332031 23.929688 24.417969 24.050781 24.457031 C 24.101562 24.464844 24.148438 24.464844 24.195312 24.457031 C 24.390625 24.457031 24.566406 24.332031 24.625 24.148438 C 24.820312 23.335938 24.867188 22.496094 24.765625 21.667969 C 24.734375 21.269531 24.625 20.878906 24.4375 20.523438 Z M 21.734375 19.625 C 21.757812 19.726562 21.757812 19.835938 21.734375 19.9375 C 21.617188 20.359375 21.175781 20.605469 20.753906 20.488281 C 20.332031 20.371094 20.085938 19.929688 20.203125 19.507812 C 20.21875 19.472656 20.238281 19.4375 20.257812 19.40625 L 20.621094 19.449219 C 21 19.476562 21.378906 19.535156 21.746094 19.628906 Z M 22.304688 22.195312 C 21.652344 22.53125 20.898438 22.597656 20.199219 22.386719 C 18.726562 21.964844 17.878906 20.429688 18.296875 18.957031 L 18.296875 18.886719 C 18.632812 19.015625 18.976562 19.125 19.328125 19.21875 L 19.328125 19.253906 C 19.132812 19.867188 19.300781 20.539062 19.765625 20.988281 C 20.230469 21.433594 20.90625 21.578125 21.511719 21.363281 C 22.117188 21.144531 22.550781 20.601562 22.625 19.960938 C 22.988281 20.144531 23.296875 20.421875 23.519531 20.761719 C 23.3125 21.371094 22.882812 21.882812 22.316406 22.195312 Z M 38.699219 18.710938 C 38.699219 18.644531 38.652344 18.589844 38.628906 18.523438 C 39.046875 18.324219 39.449219 18.101562 39.839844 17.851562 C 40.03125 17.703125 40.074219 17.433594 39.9375 17.234375 C 39.804688 17.035156 39.535156 16.976562 39.332031 17.101562 C 38.15625 17.863281 36.828125 18.355469 35.441406 18.539062 C 34.921875 18.578125 34.410156 18.671875 33.914062 18.824219 L 33.84375 18.824219 C 32.933594 19.066406 32.160156 19.664062 31.699219 20.484375 L 31.699219 20.511719 C 31.511719 20.878906 31.398438 21.28125 31.375 21.691406 C 31.273438 22.519531 31.320312 23.363281 31.511719 24.171875 C 31.574219 24.359375 31.746094 24.480469 31.941406 24.480469 C 32.089844 24.484375 32.230469 24.414062 32.316406 24.292969 C 32.40625 24.171875 32.425781 24.015625 32.378906 23.878906 C 32.25 23.28125 32.210938 22.667969 32.261719 22.0625 C 32.941406 22.9375 33.992188 23.445312 35.101562 23.441406 C 35.464844 23.441406 35.828125 23.390625 36.179688 23.289062 C 37.121094 23.019531 37.917969 22.386719 38.394531 21.523438 C 38.867188 20.664062 38.976562 19.652344 38.699219 18.710938 Z M 35.492188 19.449219 L 35.855469 19.40625 C 35.878906 19.4375 35.894531 19.472656 35.910156 19.507812 C 36.027344 19.925781 35.789062 20.355469 35.371094 20.476562 C 35.121094 20.554688 34.84375 20.496094 34.644531 20.324219 C 34.441406 20.148438 34.34375 19.886719 34.386719 19.625 C 34.753906 19.53125 35.125 19.472656 35.5 19.449219 Z M 35.9375 22.386719 C 35.234375 22.597656 34.480469 22.53125 33.828125 22.195312 C 33.261719 21.882812 32.828125 21.371094 32.621094 20.753906 C 32.84375 20.417969 33.152344 20.144531 33.515625 19.960938 C 33.523438 20.039062 33.539062 20.113281 33.558594 20.1875 C 33.773438 20.90625 34.433594 21.398438 35.183594 21.394531 C 35.703125 21.386719 36.191406 21.136719 36.503906 20.722656 C 36.816406 20.308594 36.921875 19.773438 36.789062 19.273438 L 36.789062 19.234375 C 37.136719 19.144531 37.480469 19.035156 37.816406 18.902344 L 37.816406 18.976562 C 38.226562 20.4375 37.390625 21.957031 35.9375 22.386719 Z M 35.9375 22.386719 "/>
<path style=" stroke:none;fill-rule:nonzero;fill:rgb(11.372549%,11.372549%,10.588235%);fill-opacity:1;" d="M 25.847656 19.8125 C 25.753906 18.449219 24.640625 17.585938 22.734375 17.4375 C 21.726562 17.308594 20.757812 16.957031 19.902344 16.417969 C 19.691406 16.277344 19.410156 16.335938 19.273438 16.542969 C 19.132812 16.753906 19.191406 17.035156 19.398438 17.171875 C 20.386719 17.800781 21.503906 18.199219 22.667969 18.339844 C 23.484375 18.402344 24.863281 18.683594 24.949219 19.871094 C 24.964844 20.109375 25.160156 20.296875 25.402344 20.292969 L 25.429688 20.292969 C 25.679688 20.277344 25.867188 20.058594 25.847656 19.8125 Z M 33.703125 18.339844 C 34.867188 18.199219 35.984375 17.800781 36.96875 17.171875 C 37.179688 17.035156 37.234375 16.753906 37.097656 16.542969 C 36.957031 16.335938 36.675781 16.277344 36.46875 16.417969 C 35.609375 16.964844 34.640625 17.320312 33.628906 17.457031 C 31.75 17.601562 30.605469 18.46875 30.515625 19.828125 C 30.507812 19.949219 30.546875 20.066406 30.625 20.160156 C 30.703125 20.25 30.816406 20.304688 30.9375 20.3125 L 30.96875 20.3125 C 31.207031 20.3125 31.40625 20.128906 31.421875 19.890625 C 31.507812 18.667969 32.910156 18.40625 33.703125 18.339844 Z M 18.777344 15.1875 C 18.875 15.320312 19.039062 15.382812 19.203125 15.359375 C 19.367188 15.335938 19.503906 15.222656 19.5625 15.066406 C 19.617188 14.910156 19.585938 14.738281 19.476562 14.613281 L 17.546875 12.242188 C 17.445312 12.109375 17.28125 12.042969 17.117188 12.070312 C 16.957031 12.09375 16.820312 12.207031 16.761719 12.363281 C 16.703125 12.515625 16.738281 12.691406 16.84375 12.816406 Z M 20.808594 13.875 C 20.875 14.050781 21.042969 14.164062 21.230469 14.164062 C 21.378906 14.164062 21.515625 14.09375 21.601562 13.972656 C 21.683594 13.851562 21.703125 13.699219 21.65625 13.558594 L 20.800781 11.332031 C 20.710938 11.101562 20.449219 10.984375 20.214844 11.074219 C 19.980469 11.164062 19.867188 11.425781 19.957031 11.660156 Z M 23.230469 13.941406 C 23.464844 13.941406 23.664062 13.761719 23.683594 13.523438 L 23.835938 11.601562 C 23.84375 11.480469 23.804688 11.359375 23.726562 11.269531 C 23.648438 11.175781 23.535156 11.117188 23.417969 11.109375 C 23.296875 11.097656 23.175781 11.136719 23.082031 11.214844 C 22.992188 11.292969 22.933594 11.40625 22.925781 11.527344 L 22.773438 13.457031 C 22.765625 13.582031 22.8125 13.707031 22.898438 13.796875 C 22.984375 13.890625 23.101562 13.941406 23.230469 13.941406 Z M 23.230469 13.941406 "/>
<path style=" stroke:none;fill-rule:nonzero;fill:rgb(11.372549%,11.372549%,10.588235%);fill-opacity:1;" d="M 55.484375 29.558594 C 53.125 28.808594 47.570312 28.875 43.058594 29.082031 C 46.082031 25.261719 46.082031 21.570312 45.542969 19.835938 C 45.132812 18.535156 44.496094 15.253906 45.308594 13.976562 C 45.457031 13.71875 45.722656 13.542969 46.023438 13.511719 C 47.085938 13.371094 47.28125 12.265625 47.433594 11.382812 C 47.472656 11.066406 47.542969 10.753906 47.644531 10.449219 C 47.828125 10.125 48.078125 9.839844 48.382812 9.621094 C 49.230469 8.945312 49.890625 8.0625 50.304688 7.0625 C 51.269531 4.695312 49.980469 3.527344 49.925781 3.480469 C 49.875 3.441406 49.816406 3.414062 49.753906 3.402344 L 49.671875 3.402344 C 48.679688 3.144531 47.628906 3.300781 46.761719 3.84375 C 46.347656 4.042969 45.839844 4.285156 45.089844 4.597656 C 43.476562 5.414062 41.519531 5.089844 40.25 3.800781 C 37.527344 1.1875 35.609375 0.429688 28.101562 0.429688 C 20.589844 0.429688 18.695312 1.191406 16 3.800781 C 14.730469 5.089844 12.773438 5.414062 11.15625 4.597656 C 10.59375 4.363281 10.035156 4.109375 9.488281 3.84375 C 8.617188 3.300781 7.566406 3.144531 6.578125 3.402344 L 6.492188 3.402344 C 6.429688 3.414062 6.375 3.441406 6.324219 3.480469 C 6.269531 3.527344 4.980469 4.691406 5.941406 7.0625 C 6.355469 8.0625 7.019531 8.945312 7.867188 9.621094 C 8.167969 9.839844 8.421875 10.125 8.605469 10.449219 C 8.667969 10.765625 8.703125 11.085938 8.707031 11.40625 C 8.859375 12.296875 9.046875 13.398438 10.117188 13.535156 C 10.414062 13.570312 10.679688 13.742188 10.832031 14.003906 C 11.640625 15.277344 11.007812 18.558594 10.59375 19.859375 C 10.042969 21.597656 10.070312 25.304688 13.082031 29.105469 C 8.566406 28.898438 3.011719 28.832031 0.652344 29.582031 C 0.414062 29.660156 0.28125 29.914062 0.359375 30.15625 C 0.4375 30.394531 0.691406 30.523438 0.933594 30.449219 C 3.40625 29.660156 10.007812 29.84375 13.746094 30.046875 L 13.898438 30.046875 L 14.292969 30.464844 C 9.644531 30.53125 6.492188 30.855469 4.914062 31.421875 C 4.757812 31.472656 4.640625 31.605469 4.609375 31.769531 C 4.578125 31.933594 4.640625 32.097656 4.765625 32.203125 C 4.894531 32.308594 5.066406 32.335938 5.222656 32.277344 C 6.78125 31.710938 10.242188 31.398438 15.242188 31.363281 C 15.453125 31.542969 15.671875 31.71875 15.890625 31.894531 C 11.972656 32.113281 5.601562 32.625 3.183594 33.710938 C 2.972656 33.820312 2.886719 34.074219 2.980469 34.292969 C 3.074219 34.507812 3.320312 34.617188 3.546875 34.539062 C 6.070312 33.429688 13.335938 32.941406 16.992188 32.753906 L 17.59375 33.1875 L 17.65625 33.230469 C 13.851562 33.601562 11.25 34.078125 9.917969 34.660156 C 9.707031 34.769531 9.621094 35.023438 9.714844 35.242188 C 9.808594 35.460938 10.054688 35.566406 10.28125 35.488281 C 11.53125 34.9375 14.183594 34.464844 17.976562 34.109375 C 17.960938 35.226562 18.097656 36.34375 18.386719 37.425781 C 19.375 40.039062 20.722656 40.679688 22.296875 40.8125 C 22.523438 41.238281 22.835938 41.613281 23.21875 41.910156 C 22.371094 42.675781 21.675781 43.59375 21.164062 44.613281 C 21.074219 44.847656 21.191406 45.109375 21.425781 45.199219 C 21.660156 45.289062 21.921875 45.171875 22.011719 44.941406 C 22.175781 44.515625 22.667969 43.730469 24.003906 42.40625 C 24.390625 42.601562 24.796875 42.757812 25.214844 42.875 C 24.921875 43.535156 24.730469 44.234375 24.65625 44.953125 C 24.648438 45.074219 24.691406 45.191406 24.773438 45.28125 C 24.851562 45.371094 24.964844 45.421875 25.085938 45.429688 C 25.328125 45.429688 25.527344 45.242188 25.539062 45 C 25.621094 44.335938 25.804688 43.6875 26.089844 43.082031 C 27.402344 43.300781 28.738281 43.300781 30.046875 43.082031 C 30.332031 43.6875 30.515625 44.335938 30.597656 45 C 30.613281 45.242188 30.8125 45.429688 31.050781 45.429688 C 31.171875 45.421875 31.285156 45.371094 31.367188 45.28125 C 31.449219 45.191406 31.488281 45.074219 31.480469 44.953125 C 31.414062 44.234375 31.230469 43.53125 30.945312 42.871094 C 31.363281 42.753906 31.765625 42.59375 32.152344 42.398438 C 33.492188 43.722656 33.96875 44.511719 34.144531 44.933594 C 34.234375 45.167969 34.496094 45.285156 34.730469 45.195312 C 34.964844 45.105469 35.082031 44.839844 34.992188 44.605469 C 34.480469 43.585938 33.785156 42.667969 32.941406 41.902344 C 33.320312 41.605469 33.632812 41.234375 33.859375 40.808594 C 35.433594 40.675781 36.78125 40.039062 37.761719 37.425781 C 38.046875 36.347656 38.179688 35.238281 38.15625 34.128906 C 41.949219 34.484375 44.605469 34.957031 45.851562 35.507812 C 46.003906 35.585938 46.1875 35.574219 46.324219 35.476562 C 46.464844 35.378906 46.539062 35.214844 46.515625 35.042969 C 46.492188 34.875 46.375 34.734375 46.214844 34.675781 C 44.871094 34.074219 42.222656 33.605469 38.351562 33.238281 L 38.835938 32.898438 L 39.023438 32.765625 C 42.652344 32.945312 50.035156 33.4375 52.585938 34.582031 C 52.8125 34.660156 53.058594 34.550781 53.152344 34.335938 C 53.25 34.117188 53.160156 33.863281 52.949219 33.75 C 50.492188 32.675781 44.109375 32.167969 40.203125 31.9375 C 40.429688 31.761719 40.65625 31.585938 40.875 31.402344 C 45.882812 31.433594 49.34375 31.75 50.910156 32.316406 C 51.144531 32.394531 51.398438 32.273438 51.480469 32.042969 C 51.5625 31.808594 51.449219 31.554688 51.21875 31.464844 C 49.648438 30.894531 46.496094 30.574219 41.839844 30.507812 L 42.234375 30.089844 L 42.386719 30.089844 C 46.105469 29.902344 52.726562 29.703125 55.203125 30.492188 C 55.457031 30.570312 55.730469 30.425781 55.808594 30.167969 C 55.886719 29.910156 55.742188 29.636719 55.484375 29.558594 Z M 30.074219 41 C 29.945312 40.785156 29.667969 40.710938 29.453125 40.835938 C 29.234375 40.960938 29.160156 41.238281 29.285156 41.453125 C 29.382812 41.617188 29.523438 41.878906 29.671875 42.179688 C 28.625 42.332031 27.5625 42.332031 26.515625 42.179688 C 26.726562 41.75 26.894531 41.460938 26.902344 41.453125 C 27.027344 41.238281 26.953125 40.960938 26.734375 40.835938 C 26.519531 40.710938 26.242188 40.785156 26.113281 41 C 26.113281 41.035156 25.859375 41.441406 25.589844 42.003906 C 24.761719 41.828125 24.007812 41.40625 23.421875 40.796875 L 24.894531 40.796875 C 26.21875 40.789062 27.4375 40.0625 28.070312 38.894531 C 28.707031 40.066406 29.9375 40.792969 31.269531 40.789062 L 32.742188 40.789062 C 32.15625 41.398438 31.402344 41.820312 30.574219 42 C 30.300781 41.453125 30.074219 41.054688 30.046875 41.011719 Z M 40.417969 30.558594 L 40.371094 30.59375 C 39.863281 31.015625 39.300781 31.429688 38.75 31.804688 L 38.277344 31.804688 C 38.355469 30.769531 38.550781 29.835938 38.925781 29.558594 C 39.125 29.402344 39.160156 29.113281 39.003906 28.910156 C 38.847656 28.710938 38.554688 28.675781 38.355469 28.832031 C 37.75 29.335938 37.484375 30.429688 37.371094 31.753906 L 37 31.753906 C 36.878906 31.75 36.761719 31.792969 36.671875 31.875 C 36.585938 31.960938 36.535156 32.074219 36.535156 32.195312 C 36.527344 32.449219 36.726562 32.65625 36.976562 32.664062 L 37.316406 32.664062 L 37.316406 33.109375 L 37.207031 33.109375 C 36.957031 33.09375 36.742188 33.273438 36.714844 33.523438 C 36.695312 33.769531 36.878906 33.988281 37.128906 34.011719 L 37.253906 34.011719 C 37.273438 35.039062 37.160156 36.066406 36.914062 37.066406 C 36.0625 39.335938 35.039062 39.816406 33.558594 39.886719 L 31.269531 39.886719 C 29.773438 39.882812 28.554688 38.683594 28.53125 37.1875 C 28.742188 36.988281 28.976562 36.820312 29.230469 36.679688 C 29.835938 36.292969 30.726562 35.761719 30.398438 34.992188 C 30.285156 34.726562 30.363281 34.597656 31.402344 33.890625 L 31.785156 33.632812 C 32.238281 33.386719 32.535156 32.933594 32.570312 32.421875 C 32.542969 32.027344 32.328125 31.667969 31.996094 31.453125 C 31.792969 31.328125 31.523438 31.386719 31.390625 31.585938 C 31.273438 31.789062 31.328125 32.050781 31.519531 32.191406 C 31.566406 32.226562 31.675781 32.328125 31.683594 32.414062 C 31.6875 32.5 31.578125 32.664062 31.28125 32.867188 L 30.90625 33.128906 C 29.921875 33.792969 29.148438 34.339844 29.578125 35.289062 C 29.527344 35.441406 29.039062 35.738281 28.773438 35.894531 C 28.535156 36.035156 28.304688 36.1875 28.085938 36.359375 C 27.871094 36.1875 27.640625 36.035156 27.402344 35.894531 C 27.117188 35.734375 26.847656 35.546875 26.597656 35.332031 C 27.027344 34.320312 26.25 33.792969 25.269531 33.121094 L 24.894531 32.863281 C 24.601562 32.65625 24.492188 32.492188 24.492188 32.410156 C 24.492188 32.324219 24.601562 32.222656 24.652344 32.183594 C 24.847656 32.042969 24.898438 31.773438 24.765625 31.570312 C 24.636719 31.367188 24.371094 31.304688 24.160156 31.421875 C 23.828125 31.636719 23.613281 31.996094 23.585938 32.390625 C 23.625 32.902344 23.921875 33.359375 24.371094 33.601562 L 24.753906 33.859375 C 25.800781 34.570312 25.875 34.695312 25.757812 34.960938 C 25.429688 35.738281 26.296875 36.261719 26.925781 36.648438 C 27.171875 36.789062 27.40625 36.945312 27.628906 37.117188 C 27.621094 38.628906 26.394531 39.851562 24.878906 39.851562 L 23.9375 39.851562 C 21.6875 39.90625 20.304688 39.9375 19.230469 37.03125 C 18.988281 36.03125 18.875 35.003906 18.890625 33.976562 L 19.019531 33.976562 C 19.269531 33.953125 19.453125 33.734375 19.433594 33.484375 C 19.410156 33.230469 19.191406 33.046875 18.9375 33.066406 L 18.855469 33.066406 L 18.855469 32.621094 L 19.191406 32.621094 C 19.445312 32.621094 19.648438 32.417969 19.648438 32.167969 C 19.648438 31.914062 19.445312 31.710938 19.191406 31.710938 L 18.824219 31.710938 C 18.710938 30.386719 18.472656 29.292969 17.835938 28.789062 C 17.625 28.617188 17.3125 28.652344 17.140625 28.863281 C 16.96875 29.074219 17.003906 29.386719 17.214844 29.558594 C 17.589844 29.855469 17.765625 30.769531 17.855469 31.804688 L 17.28125 31.804688 C 16.765625 31.417969 16.253906 31.011719 15.78125 30.59375 C 15.753906 30.5625 15.722656 30.53125 15.691406 30.507812 C 15.53125 30.371094 15.375 30.230469 15.230469 30.089844 L 16.640625 30.183594 L 16.675781 30.183594 C 16.925781 30.191406 17.136719 29.996094 17.148438 29.746094 C 17.15625 29.496094 16.960938 29.285156 16.710938 29.273438 C 16.710938 29.273438 15.761719 29.203125 14.292969 29.121094 C 11 25.378906 10.914062 21.742188 11.4375 20.09375 C 11.4375 20.046875 12.847656 15.484375 11.574219 13.480469 C 11.28125 13.007812 10.792969 12.691406 10.242188 12.617188 C 9.867188 12.566406 9.746094 12.011719 9.640625 11.230469 C 9.585938 10.851562 9.5 10.480469 9.371094 10.117188 C 9.144531 9.652344 8.804688 9.246094 8.386719 8.9375 C 7.640625 8.355469 7.0625 7.589844 6.703125 6.71875 C 6.097656 5.289062 6.566406 4.503906 6.765625 4.25 C 7.207031 4.210938 7.648438 4.324219 8.015625 4.574219 C 8.058594 4.609375 12.566406 7.914062 14.546875 7.914062 L 14.757812 7.914062 C 12.941406 9.214844 11.878906 10.878906 11.878906 12.507812 C 11.878906 12.757812 12.082031 12.960938 12.332031 12.960938 C 12.582031 12.960938 12.785156 12.757812 12.785156 12.507812 C 12.785156 10.808594 14.359375 8.945312 16.796875 7.75 C 17.746094 7.609375 18.664062 7.304688 19.507812 6.851562 C 19.652344 6.773438 19.746094 6.625 19.75 6.460938 C 19.753906 6.292969 19.667969 6.140625 19.523438 6.058594 C 19.382812 5.972656 19.207031 5.972656 19.066406 6.058594 C 17.644531 6.757812 16.074219 7.085938 14.492188 7.011719 C 13.734375 7.011719 12.289062 6.28125 10.945312 5.46875 C 12.855469 6.328125 15.097656 5.910156 16.574219 4.421875 C 18.992188 2.113281 20.5 1.308594 28.070312 1.308594 C 35.640625 1.308594 37.144531 2.117188 39.566406 4.421875 C 40.488281 5.363281 41.742188 5.894531 43.058594 5.90625 C 43.769531 5.894531 44.476562 5.757812 45.140625 5.496094 C 43.800781 6.300781 42.355469 7.027344 41.605469 7.027344 C 40.023438 7.097656 38.449219 6.769531 37.03125 6.070312 C 36.8125 5.953125 36.542969 6.035156 36.421875 6.25 C 36.300781 6.464844 36.375 6.738281 36.589844 6.863281 C 37.4375 7.324219 38.363281 7.632812 39.316406 7.777344 C 41.738281 8.984375 43.328125 10.800781 43.328125 12.53125 C 43.328125 12.78125 43.53125 12.984375 43.785156 12.984375 C 44.035156 12.984375 44.238281 12.78125 44.238281 12.53125 C 44.238281 10.898438 43.167969 9.234375 41.355469 7.9375 L 41.625 7.9375 C 43.601562 7.9375 48.109375 4.636719 48.152344 4.597656 C 48.519531 4.351562 48.957031 4.234375 49.398438 4.273438 C 49.597656 4.53125 50.035156 5.320312 49.460938 6.742188 C 49.101562 7.613281 48.519531 8.378906 47.777344 8.960938 C 47.359375 9.269531 47.019531 9.675781 46.789062 10.140625 C 46.664062 10.503906 46.574219 10.875 46.523438 11.253906 C 46.386719 12.058594 46.269531 12.59375 45.917969 12.640625 C 45.355469 12.710938 44.855469 13.03125 44.558594 13.519531 C 43.28125 15.519531 44.679688 20.089844 44.699219 20.132812 C 45.222656 21.785156 45.132812 25.417969 41.839844 29.160156 C 40.394531 29.238281 39.421875 29.3125 39.421875 29.3125 C 39.171875 29.320312 38.976562 29.53125 38.984375 29.78125 C 38.996094 30.03125 39.207031 30.226562 39.457031 30.21875 L 39.492188 30.21875 L 40.902344 30.128906 C 40.777344 30.265625 40.589844 30.410156 40.417969 30.558594 Z M 40.417969 30.558594 "/>
<path style=" stroke:none;fill-rule:nonzero;fill:rgb(11.372549%,11.372549%,10.588235%);fill-opacity:1;" d="M 37.007812 15.355469 C 37.144531 15.355469 37.273438 15.292969 37.359375 15.1875 L 39.289062 12.816406 C 39.394531 12.691406 39.429688 12.515625 39.371094 12.363281 C 39.316406 12.207031 39.179688 12.09375 39.015625 12.070312 C 38.851562 12.042969 38.6875 12.109375 38.585938 12.242188 L 36.65625 14.613281 C 36.546875 14.75 36.523438 14.933594 36.597656 15.09375 C 36.675781 15.25 36.832031 15.351562 37.007812 15.351562 Z M 34.769531 14.136719 C 34.820312 14.144531 34.878906 14.144531 34.929688 14.136719 C 35.117188 14.136719 35.289062 14.019531 35.355469 13.84375 L 36.207031 11.617188 C 36.296875 11.382812 36.183594 11.121094 35.949219 11.03125 C 35.714844 10.941406 35.449219 11.058594 35.359375 11.292969 L 34.507812 13.519531 C 34.453125 13.632812 34.453125 13.765625 34.5 13.882812 C 34.550781 14 34.648438 14.09375 34.769531 14.136719 Z M 32.910156 13.949219 C 33.03125 13.9375 33.144531 13.882812 33.222656 13.789062 C 33.300781 13.699219 33.335938 13.578125 33.328125 13.457031 L 33.175781 11.527344 C 33.15625 11.277344 32.9375 11.089844 32.6875 11.109375 C 32.4375 11.128906 32.25 11.347656 32.269531 11.601562 L 32.421875 13.53125 C 32.429688 13.652344 32.488281 13.761719 32.578125 13.839844 C 32.671875 13.917969 32.789062 13.957031 32.910156 13.949219 Z M 32.910156 13.949219 "/>
<path style=" stroke:none;fill-rule:nonzero;fill:rgb(11.372549%,11.372549%,10.588235%);fill-opacity:1;" d="M 21.523438 34.90625 C 21.523438 35.257812 21.238281 35.542969 20.886719 35.542969 C 20.535156 35.542969 20.253906 35.257812 20.253906 34.90625 C 20.253906 34.558594 20.535156 34.273438 20.886719 34.273438 C 21.238281 34.273438 21.523438 34.558594 21.523438 34.90625 Z M 21.523438 34.90625 "/>
<path style=" stroke:none;fill-rule:nonzero;fill:rgb(11.372549%,11.372549%,10.588235%);fill-opacity:1;" d="M 21.734375 37.066406 C 21.734375 37.417969 21.449219 37.703125 21.097656 37.703125 C 20.75 37.703125 20.464844 37.417969 20.464844 37.066406 C 20.464844 36.71875 20.75 36.433594 21.097656 36.433594 C 21.449219 36.433594 21.734375 36.71875 21.734375 37.066406 Z M 21.734375 37.066406 "/>
<path style=" stroke:none;fill-rule:nonzero;fill:rgb(11.372549%,11.372549%,10.588235%);fill-opacity:1;" d="M 23.390625 38.488281 C 23.390625 38.839844 23.109375 39.125 22.757812 39.125 C 22.40625 39.125 22.121094 38.839844 22.121094 38.488281 C 22.121094 38.140625 22.40625 37.855469 22.757812 37.855469 C 23.109375 37.855469 23.390625 38.140625 23.390625 38.488281 Z M 23.390625 38.488281 "/>
<path style=" stroke:none;fill-rule:nonzero;fill:rgb(11.372549%,11.372549%,10.588235%);fill-opacity:1;" d="M 23.949219 36.28125 C 23.949219 36.632812 23.664062 36.917969 23.3125 36.917969 C 22.960938 36.917969 22.679688 36.632812 22.679688 36.28125 C 22.679688 35.929688 22.960938 35.644531 23.3125 35.644531 C 23.664062 35.644531 23.949219 35.929688 23.949219 36.28125 Z M 23.949219 36.28125 "/>
<path style=" stroke:none;fill-rule:nonzero;fill:rgb(11.372549%,11.372549%,10.588235%);fill-opacity:1;" d="M 25.714844 37.394531 C 25.714844 37.746094 25.429688 38.03125 25.082031 38.03125 C 24.730469 38.03125 24.445312 37.746094 24.445312 37.394531 C 24.445312 37.042969 24.730469 36.757812 25.082031 36.757812 C 25.429688 36.757812 25.714844 37.042969 25.714844 37.394531 Z M 25.714844 37.394531 "/>
<path style=" stroke:none;fill-rule:nonzero;fill:rgb(11.372549%,11.372549%,10.588235%);fill-opacity:1;" d="M 35.886719 34.90625 C 35.886719 35.257812 35.601562 35.542969 35.253906 35.542969 C 34.902344 35.542969 34.617188 35.257812 34.617188 34.90625 C 34.617188 34.558594 34.902344 34.273438 35.253906 34.273438 C 35.601562 34.273438 35.886719 34.558594 35.886719 34.90625 Z M 35.886719 34.90625 "/>
<path style=" stroke:none;fill-rule:nonzero;fill:rgb(11.372549%,11.372549%,10.588235%);fill-opacity:1;" d="M 35.675781 37.066406 C 35.675781 37.417969 35.390625 37.703125 35.039062 37.703125 C 34.6875 37.703125 34.40625 37.417969 34.40625 37.066406 C 34.40625 36.71875 34.6875 36.433594 35.039062 36.433594 C 35.390625 36.433594 35.675781 36.71875 35.675781 37.066406 Z M 35.675781 37.066406 "/>
<path style=" stroke:none;fill-rule:nonzero;fill:rgb(11.372549%,11.372549%,10.588235%);fill-opacity:1;" d="M 34.019531 38.488281 C 34.019531 38.839844 33.734375 39.125 33.382812 39.125 C 33.03125 39.125 32.746094 38.839844 32.746094 38.488281 C 32.746094 38.140625 33.03125 37.855469 33.382812 37.855469 C 33.734375 37.855469 34.019531 38.140625 34.019531 38.488281 Z M 34.019531 38.488281 "/>
<path style=" stroke:none;fill-rule:nonzero;fill:rgb(11.372549%,11.372549%,10.588235%);fill-opacity:1;" d="M 33.460938 36.28125 C 33.460938 36.632812 33.175781 36.917969 32.824219 36.917969 C 32.476562 36.917969 32.191406 36.632812 32.191406 36.28125 C 32.191406 35.929688 32.476562 35.644531 32.824219 35.644531 C 33.175781 35.644531 33.460938 35.929688 33.460938 36.28125 Z M 33.460938 36.28125 "/>
<path style=" stroke:none;fill-rule:nonzero;fill:rgb(11.372549%,11.372549%,10.588235%);fill-opacity:1;" d="M 31.695312 37.394531 C 31.695312 37.746094 31.410156 38.03125 31.058594 38.03125 C 30.707031 38.03125 30.421875 37.746094 30.421875 37.394531 C 30.421875 37.042969 30.707031 36.757812 31.058594 36.757812 C 31.410156 36.757812 31.695312 37.042969 31.695312 37.394531 Z M 31.695312 37.394531 "/>
<path style=" stroke:none;fill-rule:nonzero;fill:rgb(11.372549%,11.372549%,10.588235%);fill-opacity:1;" d="M 30.222656 24.414062 C 30.101562 24.40625 29.984375 24.445312 29.890625 24.523438 C 29.800781 24.601562 29.742188 24.710938 29.734375 24.832031 C 29.5625 26.078125 28.976562 27.226562 28.070312 28.09375 C 27.164062 27.222656 26.582031 26.070312 26.417969 24.828125 C 26.398438 24.578125 26.179688 24.390625 25.925781 24.410156 C 25.675781 24.429688 25.488281 24.648438 25.511719 24.898438 C 25.730469 26.511719 26.53125 27.988281 27.765625 29.050781 C 27.847656 29.117188 27.949219 29.152344 28.050781 29.152344 C 28.15625 29.152344 28.253906 29.117188 28.335938 29.050781 C 29.570312 27.988281 30.375 26.511719 30.59375 24.898438 C 30.613281 24.667969 30.453125 24.457031 30.222656 24.414062 Z M 22.242188 26.050781 C 22.03125 25.933594 21.761719 26.003906 21.636719 26.210938 C 21.515625 26.425781 21.359375 26.648438 21.195312 26.882812 C 20.386719 28.058594 19.164062 29.835938 20.886719 31.726562 C 21.0625 31.871094 21.316406 31.867188 21.484375 31.714844 C 21.652344 31.558594 21.683594 31.308594 21.554688 31.121094 C 20.410156 29.878906 20.988281 28.808594 21.941406 27.429688 C 22.117188 27.167969 22.285156 26.925781 22.417969 26.695312 C 22.488281 26.589844 22.507812 26.457031 22.472656 26.335938 C 22.441406 26.210938 22.355469 26.109375 22.242188 26.050781 Z M 34.539062 26.210938 C 34.414062 25.996094 34.136719 25.921875 33.917969 26.046875 C 33.699219 26.171875 33.625 26.449219 33.75 26.667969 C 33.882812 26.894531 34.054688 27.136719 34.230469 27.398438 C 35.179688 28.777344 35.761719 29.847656 34.617188 31.089844 C 34.480469 31.203125 34.425781 31.386719 34.472656 31.554688 C 34.515625 31.726562 34.65625 31.855469 34.832031 31.882812 C 35.007812 31.914062 35.183594 31.839844 35.28125 31.695312 C 37.007812 29.824219 35.785156 28.0625 34.972656 26.855469 C 34.824219 26.648438 34.664062 26.425781 34.539062 26.210938 Z M 23.164062 31.980469 C 23.238281 31.738281 23.109375 31.484375 22.867188 31.40625 C 22.628906 31.332031 22.375 31.460938 22.296875 31.699219 C 21.949219 32.824219 22.429688 34.039062 23.453125 34.617188 C 23.671875 34.742188 23.949219 34.667969 24.074219 34.449219 C 24.199219 34.234375 24.125 33.957031 23.90625 33.832031 C 23.253906 33.464844 22.941406 32.695312 23.164062 31.980469 Z M 32.679688 34.597656 C 33.703125 34.019531 34.183594 32.804688 33.835938 31.683594 C 33.757812 31.445312 33.503906 31.3125 33.265625 31.390625 C 33.023438 31.464844 32.894531 31.722656 32.972656 31.960938 C 33.179688 32.671875 32.871094 33.433594 32.226562 33.792969 C 32.007812 33.917969 31.933594 34.195312 32.058594 34.414062 C 32.183594 34.632812 32.464844 34.707031 32.679688 34.582031 Z M 29.8125 32.070312 C 29.371094 32.574219 28.734375 32.863281 28.066406 32.863281 C 27.398438 32.863281 26.761719 32.574219 26.320312 32.070312 C 26.152344 31.875 25.859375 31.855469 25.667969 32.019531 C 25.472656 32.1875 25.453125 32.480469 25.617188 32.675781 C 26.230469 33.386719 27.125 33.800781 28.0625 33.800781 C 29.003906 33.800781 29.898438 33.386719 30.507812 32.675781 C 30.675781 32.480469 30.652344 32.1875 30.460938 32.019531 C 30.265625 31.855469 29.972656 31.875 29.804688 32.070312 Z M 16.277344 23.21875 C 16.132812 23.121094 15.949219 23.117188 15.800781 23.199219 C 15.652344 23.285156 15.5625 23.445312 15.574219 23.617188 C 15.582031 23.789062 15.683594 23.941406 15.839844 24.011719 C 17.433594 24.886719 18.121094 26.183594 18.121094 26.648438 C 18.121094 26.898438 18.324219 27.101562 18.574219 27.101562 C 18.828125 27.101562 19.03125 26.898438 19.03125 26.648438 C 19.03125 25.710938 18 24.167969 16.277344 23.21875 Z M 40.527344 23.398438 C 40.410156 23.183594 40.140625 23.105469 39.921875 23.21875 C 38.1875 24.167969 37.144531 25.710938 37.144531 26.652344 C 37.144531 26.90625 37.347656 27.109375 37.601562 27.109375 C 37.851562 27.109375 38.054688 26.90625 38.054688 26.652344 C 38.054688 26.1875 38.742188 24.886719 40.335938 24.015625 C 40.441406 23.960938 40.523438 23.863281 40.5625 23.75 C 40.597656 23.632812 40.585938 23.507812 40.527344 23.398438 Z M 40.527344 23.398438 "/>
<path style=" stroke:none;fill-rule:nonzero;fill:rgb(0%,0%,0%);fill-opacity:1;" d="M 69.0625 34.484375 L 68.507812 33.097656 L 66.394531 33.097656 L 65.847656 34.484375 L 65.492188 34.484375 L 67.257812 30.066406 L 67.652344 30.066406 L 69.417969 34.484375 Z M 66.519531 32.792969 L 68.390625 32.792969 L 67.621094 30.863281 L 67.457031 30.398438 L 67.453125 30.398438 L 67.289062 30.851562 Z M 75.171875 32.324219 L 76.988281 32.324219 L 76.988281 34.484375 L 76.71875 34.484375 L 76.707031 33.714844 C 76.585938 33.980469 76.394531 34.1875 76.140625 34.335938 C 75.882812 34.476562 75.566406 34.550781 75.1875 34.550781 C 74.785156 34.550781 74.433594 34.457031 74.132812 34.273438 C 73.832031 34.089844 73.597656 33.824219 73.4375 33.480469 C 73.273438 33.136719 73.191406 32.734375 73.191406 32.273438 C 73.191406 31.816406 73.277344 31.414062 73.445312 31.070312 C 73.613281 30.726562 73.847656 30.460938 74.148438 30.277344 C 74.453125 30.09375 74.804688 30 75.203125 30 C 75.65625 30 76.023438 30.089844 76.308594 30.269531 C 76.59375 30.445312 76.8125 30.71875 76.953125 31.085938 L 76.644531 31.242188 C 76.542969 30.9375 76.371094 30.703125 76.128906 30.542969 C 75.886719 30.386719 75.578125 30.304688 75.203125 30.304688 C 74.875 30.304688 74.585938 30.386719 74.335938 30.542969 C 74.085938 30.703125 73.894531 30.933594 73.757812 31.226562 C 73.617188 31.523438 73.546875 31.875 73.546875 32.273438 C 73.546875 32.886719 73.691406 33.367188 73.984375 33.71875 C 74.277344 34.070312 74.683594 34.246094 75.199219 34.246094 C 75.523438 34.246094 75.792969 34.179688 76.015625 34.054688 C 76.242188 33.925781 76.40625 33.757812 76.507812 33.550781 C 76.617188 33.34375 76.671875 33.121094 76.671875 32.882812 L 76.671875 32.636719 L 75.171875 32.636719 Z M 81.851562 34.175781 L 84.640625 34.175781 L 84.640625 34.484375 L 81.519531 34.484375 L 81.519531 30.066406 L 84.535156 30.066406 L 84.535156 30.371094 L 81.851562 30.371094 L 81.851562 32.078125 L 83.96875 32.078125 L 83.96875 32.394531 L 81.851562 32.394531 Z M 92.347656 30.066406 L 92.347656 34.484375 L 91.933594 34.484375 L 89.589844 31.019531 L 89.265625 30.429688 L 89.257812 30.429688 L 89.28125 30.984375 L 89.28125 34.484375 L 88.957031 34.484375 L 88.957031 30.066406 L 89.378906 30.066406 L 91.714844 33.527344 L 92.046875 34.121094 L 92.035156 33.566406 L 92.035156 30.066406 Z M 100.578125 33.363281 C 100.453125 33.742188 100.238281 34.03125 99.929688 34.238281 C 99.617188 34.445312 99.246094 34.550781 98.816406 34.550781 C 98.414062 34.550781 98.058594 34.457031 97.753906 34.273438 C 97.453125 34.089844 97.21875 33.824219 97.050781 33.480469 C 96.890625 33.136719 96.808594 32.734375 96.808594 32.273438 C 96.808594 31.816406 96.890625 31.414062 97.050781 31.070312 C 97.21875 30.726562 97.453125 30.460938 97.753906 30.277344 C 98.058594 30.09375 98.410156 30 98.804688 30 C 99.6875 30 100.261719 30.363281 100.523438 31.089844 L 100.191406 31.242188 C 100.089844 30.929688 99.925781 30.695312 99.699219 30.539062 C 99.472656 30.382812 99.183594 30.304688 98.824219 30.304688 C 98.496094 30.304688 98.207031 30.386719 97.957031 30.542969 C 97.703125 30.703125 97.507812 30.933594 97.367188 31.226562 C 97.230469 31.523438 97.160156 31.875 97.160156 32.273438 C 97.160156 32.675781 97.230469 33.027344 97.367188 33.320312 C 97.5 33.617188 97.691406 33.847656 97.941406 34.003906 C 98.1875 34.164062 98.480469 34.246094 98.816406 34.246094 C 99.171875 34.246094 99.476562 34.15625 99.722656 33.980469 C 99.972656 33.804688 100.144531 33.558594 100.246094 33.242188 Z M 105.242188 34.175781 L 108.035156 34.175781 L 108.035156 34.484375 L 104.910156 34.484375 L 104.910156 30.066406 L 107.925781 30.066406 L 107.925781 30.371094 L 105.242188 30.371094 L 105.242188 32.078125 L 107.367188 32.078125 L 107.367188 32.394531 L 105.242188 32.394531 Z M 119.179688 30.066406 C 119.886719 30.066406 120.429688 30.253906 120.8125 30.625 C 121.191406 31 121.382812 31.539062 121.382812 32.242188 C 121.382812 32.964844 121.191406 33.519531 120.8125 33.90625 C 120.429688 34.289062 119.886719 34.484375 119.179688 34.484375 L 117.789062 34.484375 L 117.789062 30.066406 Z M 119.210938 34.175781 C 119.800781 34.175781 120.25 34.011719 120.5625 33.675781 C 120.878906 33.34375 121.035156 32.867188 121.035156 32.242188 C 121.035156 31.640625 120.878906 31.183594 120.5625 30.859375 C 120.25 30.535156 119.800781 30.371094 119.210938 30.371094 L 118.125 30.371094 L 118.125 34.175781 Z M 126.183594 34.175781 L 128.96875 34.175781 L 128.96875 34.484375 L 125.847656 34.484375 L 125.847656 30.066406 L 128.863281 30.066406 L 128.863281 30.371094 L 126.183594 30.371094 L 126.183594 32.078125 L 128.300781 32.078125 L 128.300781 32.394531 L 126.183594 32.394531 Z M 140.914062 31.386719 L 140.023438 34.484375 L 139.609375 34.484375 L 138.230469 30.066406 L 138.59375 30.066406 L 139.820312 34.210938 L 140.976562 30.066406 L 141.363281 30.066406 L 142.519531 34.214844 L 143.757812 30.066406 L 144.101562 30.066406 L 142.71875 34.484375 L 142.308594 34.484375 L 141.414062 31.386719 L 141.171875 30.429688 L 141.160156 30.429688 Z M 148.675781 34.175781 L 151.464844 34.175781 L 151.464844 34.484375 L 148.339844 34.484375 L 148.339844 30.066406 L 151.363281 30.066406 L 151.363281 30.371094 L 148.675781 30.371094 L 148.675781 32.078125 L 150.796875 32.078125 L 150.796875 32.394531 L 148.675781 32.394531 Z M 155.78125 34.484375 L 155.78125 30.066406 L 157.339844 30.066406 C 157.824219 30.066406 158.1875 30.167969 158.425781 30.367188 C 158.660156 30.570312 158.777344 30.859375 158.777344 31.238281 C 158.777344 31.496094 158.710938 31.714844 158.570312 31.894531 C 158.429688 32.070312 158.230469 32.1875 157.972656 32.242188 L 157.972656 32.246094 C 158.257812 32.289062 158.484375 32.40625 158.648438 32.59375 C 158.820312 32.785156 158.902344 33.015625 158.902344 33.292969 C 158.902344 33.671875 158.769531 33.964844 158.496094 34.171875 C 158.226562 34.378906 157.839844 34.484375 157.339844 34.484375 Z M 156.117188 32.101562 L 157.351562 32.101562 C 158.066406 32.101562 158.425781 31.816406 158.425781 31.238281 C 158.425781 30.660156 158.066406 30.371094 157.351562 30.371094 L 156.117188 30.371094 Z M 156.117188 34.175781 L 157.40625 34.175781 C 157.785156 34.175781 158.066406 34.101562 158.257812 33.949219 C 158.449219 33.796875 158.546875 33.578125 158.546875 33.292969 C 158.546875 33.003906 158.449219 32.785156 158.257812 32.632812 C 158.066406 32.484375 157.785156 32.410156 157.40625 32.410156 L 156.117188 32.410156 Z M 170.1875 30.066406 C 170.894531 30.066406 171.4375 30.253906 171.816406 30.625 C 172.199219 31 172.390625 31.539062 172.390625 32.242188 C 172.390625 32.964844 172.199219 33.519531 171.816406 33.90625 C 171.4375 34.289062 170.894531 34.484375 170.1875 34.484375 L 168.796875 34.484375 L 168.796875 30.066406 Z M 170.214844 34.175781 C 170.804688 34.175781 171.257812 34.011719 171.574219 33.675781 C 171.886719 33.34375 172.042969 32.867188 172.042969 32.242188 C 172.042969 31.640625 171.886719 31.183594 171.574219 30.859375 C 171.257812 30.535156 170.804688 30.371094 170.214844 30.371094 L 169.132812 30.371094 L 169.132812 34.175781 Z M 177.191406 34.175781 L 179.980469 34.175781 L 179.980469 34.484375 L 176.855469 34.484375 L 176.855469 30.066406 L 179.871094 30.066406 L 179.871094 30.371094 L 177.191406 30.371094 L 177.191406 32.078125 L 179.3125 32.078125 L 179.3125 32.394531 L 177.191406 32.394531 Z M 185.660156 30 C 186.492188 30 187.046875 30.324219 187.328125 30.976562 L 187.039062 31.210938 C 186.929688 30.894531 186.761719 30.664062 186.539062 30.519531 C 186.320312 30.378906 186.027344 30.304688 185.667969 30.304688 C 185.40625 30.304688 185.179688 30.347656 184.988281 30.429688 C 184.800781 30.511719 184.652344 30.617188 184.554688 30.753906 C 184.453125 30.894531 184.402344 31.050781 184.402344 31.222656 C 184.402344 31.390625 184.445312 31.53125 184.53125 31.644531 C 184.613281 31.753906 184.757812 31.851562 184.960938 31.929688 C 185.164062 32.007812 185.445312 32.078125 185.800781 32.140625 C 186.375 32.238281 186.785156 32.382812 187.027344 32.570312 C 187.265625 32.757812 187.382812 33.015625 187.382812 33.34375 C 187.382812 33.582031 187.316406 33.792969 187.179688 33.976562 C 187.042969 34.15625 186.847656 34.296875 186.597656 34.398438 C 186.339844 34.5 186.050781 34.550781 185.726562 34.550781 C 185.265625 34.550781 184.875 34.457031 184.554688 34.273438 C 184.234375 34.089844 184.015625 33.828125 183.898438 33.492188 L 184.195312 33.265625 C 184.285156 33.582031 184.464844 33.824219 184.730469 33.992188 C 185.003906 34.160156 185.335938 34.246094 185.734375 34.246094 C 186.117188 34.246094 186.429688 34.167969 186.671875 34.011719 C 186.917969 33.855469 187.039062 33.640625 187.039062 33.363281 C 187.039062 33.128906 186.941406 32.941406 186.738281 32.804688 C 186.542969 32.664062 186.199219 32.554688 185.707031 32.472656 C 185.292969 32.398438 184.964844 32.308594 184.722656 32.207031 C 184.484375 32.105469 184.3125 31.980469 184.207031 31.824219 C 184.101562 31.675781 184.046875 31.488281 184.046875 31.257812 C 184.046875 31.03125 184.113281 30.820312 184.246094 30.632812 C 184.375 30.4375 184.5625 30.285156 184.808594 30.171875 C 185.050781 30.058594 185.335938 30 185.660156 30 Z M 192.117188 30.066406 L 192.117188 34.484375 L 191.78125 34.484375 L 191.78125 30.066406 Z M 198.554688 32.324219 L 200.367188 32.324219 L 200.367188 34.484375 L 200.097656 34.484375 L 200.089844 33.714844 C 199.96875 33.980469 199.777344 34.1875 199.519531 34.335938 C 199.265625 34.476562 198.949219 34.550781 198.570312 34.550781 C 198.167969 34.550781 197.816406 34.457031 197.511719 34.273438 C 197.214844 34.089844 196.980469 33.824219 196.820312 33.480469 C 196.65625 33.136719 196.574219 32.734375 196.574219 32.273438 C 196.574219 31.816406 196.660156 31.414062 196.824219 31.070312 C 196.992188 30.726562 197.230469 30.460938 197.53125 30.277344 C 197.835938 30.09375 198.1875 30 198.585938 30 C 199.035156 30 199.40625 30.089844 199.691406 30.269531 C 199.980469 30.445312 200.191406 30.71875 200.332031 31.085938 L 200.027344 31.242188 C 199.925781 30.9375 199.753906 30.703125 199.511719 30.542969 C 199.265625 30.386719 198.957031 30.304688 198.585938 30.304688 C 198.257812 30.304688 197.964844 30.386719 197.71875 30.542969 C 197.46875 30.703125 197.273438 30.933594 197.136719 31.226562 C 196.996094 31.523438 196.929688 31.875 196.929688 32.273438 C 196.929688 32.886719 197.074219 33.367188 197.367188 33.71875 C 197.660156 34.070312 198.0625 34.246094 198.582031 34.246094 C 198.902344 34.246094 199.171875 34.179688 199.394531 34.054688 C 199.617188 33.925781 199.785156 33.757812 199.894531 33.550781 C 200 33.34375 200.054688 33.121094 200.054688 32.882812 L 200.054688 32.636719 L 198.554688 32.636719 Z M 208.289062 30.066406 L 208.289062 34.484375 L 207.875 34.484375 L 205.53125 31.019531 L 205.207031 30.429688 L 205.199219 30.429688 L 205.21875 30.984375 L 205.21875 34.484375 L 204.898438 34.484375 L 204.898438 30.066406 L 205.316406 30.066406 L 207.65625 33.527344 L 207.988281 34.121094 L 207.976562 33.566406 L 207.976562 30.066406 Z M 208.289062 30.066406 "/>
</g>
</svg>
